<svg width="2061" height="1126" viewBox="0 0 2061 1126" fill="none" xmlns="http://www.w3.org/2000/svg">
<g clipPath="url(#clip0_454_1182)">
<path d="M1125.89 439.722C1107.07 408.347 1070.71 436.333 1063.8 456.386C1061.92 461.82 1065.85 466.935 1071.28 468.81C1102.89 479.72 1135.95 463.185 1125.89 439.722Z" fill="url(#paint0_linear_454_1182)"/>
<path d="M1062.97 550.998H1052.94C1049.29 529.109 1059.93 525.461 1065.7 526.373C1070.08 530.021 1063.88 542.79 1062.97 550.998Z" fill="url(#paint1_linear_454_1182)"/>
<path d="M837.69 447.935C834.042 426.957 841.339 393.393 899.711 426.957L939.967 450.779C942.579 452.325 945.906 451.905 948.052 449.759L949.426 448.386C952.498 445.314 957.042 444.241 961.163 445.615C963.81 446.497 966.72 446.04 968.97 444.391L970.881 442.989C975.905 439.305 982.567 438.74 988.14 441.526L989.075 441.994C990.824 442.869 992.869 442.929 994.666 442.159L997.537 440.929C1001.91 439.056 1006.95 439.66 1010.75 442.513L1015.62 446.164C1017.78 447.785 1020.71 447.936 1023.03 446.546L1024 445.964C1026.71 444.335 1030.12 444.006 1032.66 445.89C1035.23 447.792 1037.82 450.544 1038.83 454.012C1039.37 455.89 1040.12 457.783 1041.61 459.046L1045.25 462.12C1049.02 465.316 1051.46 469.801 1052 474.72C1053.23 486.011 1054.82 500.073 1059.99 507.258C1061.42 509.261 1061.51 512.525 1059.49 513.939L1049.72 520.78C1047.3 522.472 1044.06 522.368 1041.76 520.525L1029.2 510.481C1025.76 507.73 1020.71 508.47 1018.21 512.091C1016.29 514.857 1017.18 518.67 1020.11 520.312L1039.58 531.188C1043.22 533.225 1045.21 537.32 1044.56 541.446L1044.24 543.493C1043.47 548.339 1039.29 551.908 1034.39 551.908H1024.84C1022.12 551.908 1020.92 554.71 1023.25 556.116C1028.88 559.511 1038.76 562.686 1053.67 561.783C1056.55 561.609 1058.53 564.85 1056.91 567.231L1055.98 568.583C1051.72 574.805 1045.02 578.927 1037.55 579.924L1006.12 584.115C998.849 585.085 992.372 589.416 990.185 596.416C985.392 611.751 981.486 638.603 988.185 673.213C987.304 650.619 993.051 603.67 1022.32 590.585C1024.27 589.709 1026.54 590.264 1028.06 591.781C1028.78 592.504 1029.83 592.748 1030.85 592.655C1034.66 592.309 1040.41 594.015 1043.79 602.094C1045.2 605.451 1048.57 607.829 1052.13 607.066C1055.94 606.25 1059.87 607.785 1062.12 610.968L1066.15 616.683C1067.98 619.272 1071.46 620.08 1074.24 618.562C1077.39 616.844 1081.25 617.077 1084.17 619.163L1088.21 622.051C1090.54 623.713 1093.69 623.596 1095.89 621.765L1096.47 621.282C1100.4 618.002 1106.03 617.702 1110.29 620.544C1112.5 622.016 1115.43 621.797 1117.39 620.012L1118.36 619.126C1121.99 615.831 1126.88 614.303 1131.74 614.95L1135.66 615.473C1136.94 615.644 1138.21 615.054 1138.9 613.962L1141.21 610.338C1143.04 607.462 1146.21 605.72 1149.62 605.72H1153.22C1155.94 605.72 1158.31 603.895 1159.01 601.271C1160.52 595.641 1165.15 591.392 1170.89 590.379L1174.23 589.788C1175.82 589.508 1176.98 588.127 1176.98 586.515V577.562C1176.98 575.227 1178.21 573.063 1180.21 571.861L1186.1 568.325C1232.94 562.3 1263.45 579.411 1283.35 606.511C1291.44 617.526 1291.9 632.396 1284.79 644.069C1216.68 755.962 1004.75 759.35 922.513 658.62L915.252 648.009C912.555 644.067 912.906 638.791 916.101 635.241C917.717 633.445 917.875 630.769 916.481 628.795L912.598 623.292C909.895 619.463 910.341 614.244 913.655 610.93C915.058 609.527 915.166 607.288 913.905 605.757L911.698 603.078C907.075 597.464 907.821 589.176 913.373 584.479L915.216 582.919L910.376 575.439C907.378 570.806 908.161 564.685 912.229 560.955L912.525 560.684C914.553 558.825 914.793 555.713 913.075 553.565C908.674 548.064 909.47 540.025 914.819 535.44C916.652 533.87 917.195 531.242 916.115 529.083L914.604 526.058C912.212 521.274 912.919 515.522 916.4 511.461L917.863 509.754C920.083 507.164 920.349 503.427 918.518 500.549C916.429 497.267 915.93 493.219 917.16 489.528L917.952 487.152C898.799 487.152 848.635 491.713 837.69 447.935ZM967.382 482.875C961.881 478.408 953.49 477.466 948.886 482.853C942.625 490.176 944.632 501.171 950.35 505.991C952.693 507.967 956.021 507.991 958.97 507.155C966.942 504.897 971.476 500.415 973.723 496.653C975.184 494.206 974.857 491.152 973.177 488.85C971.524 486.585 969.479 484.578 967.382 482.875ZM915.859 460.931C894.902 438.039 856.849 413.619 856.849 449.753C856.849 462.739 868.539 483.519 914.618 466.028C916.726 465.228 917.382 462.593 915.859 460.931Z" fill="url(#paint2_linear_454_1182)"/>
<path d="M1331.17 231.098H1335.22C1336.75 231.098 1337.98 229.839 1337.94 228.31L1333.88 55.4052C1054.65 -74.6763 767.782 43.8089 695.762 209.323C584.39 465.269 776.784 689.465 910.975 719.431C866.842 699.272 872.156 621.133 880.33 584.583C750.246 307.394 871.466 43.8088 1079.89 43.8088C1248.96 37.0622 1300.51 138.421 1328.57 229.18C1328.92 230.324 1329.97 231.098 1331.17 231.098Z" fill="url(#paint3_linear_454_1182)"/>
<path d="M1258.28 332.593C1101.64 231.098 966.79 182.08 1073.72 73.7931C1034.63 70.8195 986.113 90.2851 951.781 118.052C933.468 132.862 922.442 154.941 920.63 178.423C912.114 288.8 1006.42 353.837 1042.09 377.245C1068.16 394.352 1195.88 472.639 1246.02 515.115C1325.41 582.362 1251.47 716.706 1121.39 701.042C970.21 690.856 940.706 572.579 944.771 511.908C944.878 510.313 943.622 508.985 942.024 508.985H936.431C935.417 508.985 934.485 509.548 934.022 510.451C903.109 570.67 898.789 644.817 911.625 681.973C973.192 751.712 1199.71 775.958 1317.53 690.826C1433.31 577.091 1432.63 423.854 1258.28 332.593Z" fill="url(#paint4_linear_454_1182)"/>
<path d="M101.329 987.695H130.836C130.836 1008.43 125.651 1024.37 115.282 1035.5C104.913 1046.63 90.2739 1052.2 71.3652 1052.2C29.7355 1052.2 8.92065 1027.72 8.92065 978.775V965.051C8.92065 926.471 19.5949 902.301 40.9435 892.542C49.3304 888.577 59.471 886.595 71.3652 886.595C88.749 886.595 102.854 891.398 113.681 901.005C124.66 910.459 130.15 924.183 130.15 942.177H100.414C98.7371 933.18 95.7635 926.395 91.4938 921.82C87.2241 917.245 80.5146 914.958 71.3652 914.958C60.6909 914.958 52.7614 918.313 47.5768 925.022C43.917 929.749 41.7822 937.831 41.1722 949.268C40.8672 952.928 40.7147 957.884 40.7147 964.136V978.317C40.7147 995.854 43.1546 1007.82 48.0342 1014.23C53.0664 1020.63 60.8434 1023.84 71.3652 1023.84C82.0395 1023.84 89.359 1020.94 93.3237 1015.14C97.4409 1009.2 100.109 1000.05 101.329 987.695ZM277.323 961.848V974.2C277.323 1001.5 272.138 1021.32 261.769 1033.67C251.552 1046.02 235.083 1052.2 212.362 1052.2C189.641 1052.2 173.172 1046.02 162.955 1033.67C152.891 1021.32 147.859 1001.27 147.859 973.514V961.62C147.859 936.306 152.967 917.474 163.184 905.122C173.553 892.771 189.87 886.595 212.133 886.595C234.549 886.595 251.018 892.847 261.54 905.351C272.062 917.855 277.323 936.688 277.323 961.848ZM245.529 973.514V965.051C245.529 950.412 243.699 938.746 240.039 930.054C235.769 919.99 226.62 914.958 212.591 914.958C198.409 914.958 189.184 919.99 184.914 930.054C181.407 938.289 179.653 949.954 179.653 965.051V973.514C179.653 993.185 182.398 1006.45 187.888 1013.31C190.022 1016.21 193.148 1018.73 197.266 1020.86C201.535 1022.84 206.568 1023.84 212.362 1023.84C218.309 1023.84 223.341 1022.84 227.459 1020.86C231.576 1018.88 234.778 1016.44 237.065 1013.54C239.353 1010.65 241.106 1006.83 242.326 1002.11C244.461 994.634 245.529 985.103 245.529 973.514ZM428.414 1050.83H391.588L359.794 990.44H336.921V1050.83H305.126V922.964C305.126 910.764 307.948 901.92 313.59 896.43C319.232 890.788 328.686 887.967 341.953 887.967H368.943C385.107 887.967 397.916 892.923 407.371 902.835C416.978 912.594 421.781 925.022 421.781 940.119C421.781 951.098 418.884 960.629 413.089 968.71C407.447 976.64 400.433 982.13 392.046 985.179L428.414 1050.83ZM366.885 963.907C373.594 963.907 379.084 961.62 383.354 957.045C387.776 952.318 389.987 946.523 389.987 939.661C389.987 932.647 387.852 927.005 383.582 922.735C379.465 918.465 373.899 916.33 366.885 916.33H351.102C341.648 916.33 336.921 921.134 336.921 930.741V963.907H366.885ZM577.617 968.71L577.846 986.323C577.236 997.455 575.864 1006.83 573.729 1014.46C571.594 1022.08 567.4 1029.02 561.148 1035.27C550.779 1045.64 535.683 1050.83 515.859 1050.83C492.528 1050.83 476.517 1047.78 467.825 1041.68C459.133 1035.42 454.787 1024.22 454.787 1008.05V887.967H518.146C536.445 887.967 550.779 893.152 561.148 903.521C569.535 911.908 574.491 922.125 576.016 934.172C577.083 942.711 577.617 954.224 577.617 968.71ZM538.961 1012.4C541.858 1008.89 543.688 1004.09 544.451 997.988C545.366 991.736 545.823 982.053 545.823 968.939C545.823 955.825 545.366 946.371 544.451 940.576C543.688 934.629 541.858 929.902 538.961 926.395C533.471 919.685 525.542 916.33 515.173 916.33H486.581V1006.45C486.581 1012.55 488.639 1016.74 492.757 1019.03C496.874 1021.32 504.193 1022.46 514.715 1022.46C525.389 1022.46 533.471 1019.11 538.961 1012.4ZM712.84 1050.83H655.199C636.901 1050.83 624.015 1047.7 616.543 1041.45C609.224 1035.04 605.564 1023.84 605.564 1007.82V887.967H712.84V916.33H637.358V954.529H690.196L687.908 982.892H637.358V1005.54C637.358 1011.94 638.807 1016.36 641.704 1018.8C644.601 1021.24 649.862 1022.46 657.487 1022.46H712.84V1050.83ZM867.343 1050.83H830.517L798.723 990.44H775.85V1050.83H744.056V922.964C744.056 910.764 746.877 901.92 752.519 896.43C758.161 890.788 767.615 887.967 780.882 887.967H807.872C824.036 887.967 836.845 892.923 846.3 902.835C855.907 912.594 860.71 925.022 860.71 940.119C860.71 951.098 857.813 960.629 852.018 968.71C846.376 976.64 839.362 982.13 830.975 985.179L867.343 1050.83ZM805.814 963.907C812.523 963.907 818.013 961.62 822.283 957.045C826.705 952.318 828.916 946.523 828.916 939.661C828.916 932.647 826.781 927.005 822.511 922.735C818.394 918.465 812.828 916.33 805.814 916.33H790.031C780.577 916.33 775.85 921.134 775.85 930.741V963.907H805.814ZM1013.12 961.848V974.2C1013.12 1001.5 1007.93 1021.32 997.561 1033.67C987.344 1046.02 970.876 1052.2 948.155 1052.2C925.434 1052.2 908.965 1046.02 898.748 1033.67C888.684 1021.32 883.651 1001.27 883.651 973.514V961.62C883.651 936.306 888.76 917.474 898.977 905.122C909.346 892.771 925.662 886.595 947.926 886.595C970.342 886.595 986.811 892.847 997.333 905.351C1007.85 917.855 1013.12 936.688 1013.12 961.848ZM981.321 973.514V965.051C981.321 950.412 979.491 938.746 975.831 930.054C971.562 919.99 962.412 914.958 948.383 914.958C934.202 914.958 924.976 919.99 920.706 930.054C917.199 938.289 915.446 949.954 915.446 965.051V973.514C915.446 993.185 918.19 1006.45 923.68 1013.31C925.815 1016.21 928.941 1018.73 933.058 1020.86C937.328 1022.84 942.36 1023.84 948.155 1023.84C954.102 1023.84 959.134 1022.84 963.251 1020.86C967.368 1018.88 970.571 1016.44 972.858 1013.54C975.145 1010.65 976.899 1006.83 978.119 1002.11C980.254 994.634 981.321 985.103 981.321 973.514Z" fill="white"/>
<path d="M1150.71 1002.79C1150.71 1018.19 1145.07 1030.32 1133.79 1039.16C1122.5 1047.85 1108.09 1052.2 1090.55 1052.2C1076.68 1052.2 1063.26 1048.39 1050.3 1040.76C1043.89 1036.8 1038.63 1031.23 1034.51 1024.06C1030.4 1016.74 1028.34 1008.43 1028.34 999.132L1057.16 997.76C1057.16 1005.99 1060.67 1012.4 1067.68 1016.97C1074.7 1021.55 1082.47 1023.84 1091.01 1023.84C1110.07 1023.84 1119.6 1017.13 1119.6 1003.71C1119.6 992.728 1113.12 986.247 1100.16 984.264L1073.63 981.52C1060.36 979.537 1049.84 974.81 1042.06 967.338C1034.29 959.866 1030.4 949.116 1030.4 935.086C1030.4 921.057 1035.96 909.468 1047.09 900.319C1058.23 891.169 1072.26 886.595 1089.18 886.595C1106.26 886.595 1119.98 890.941 1130.35 899.633C1140.72 908.172 1145.91 919.228 1145.91 932.799L1117.54 934.172C1114.95 920.905 1106.03 914.272 1090.78 914.272C1081.48 914.272 1074.16 916.254 1068.82 920.219C1063.64 924.183 1061.05 928.911 1061.05 934.4C1061.05 939.737 1062.95 944.007 1066.77 947.209C1070.58 950.259 1075.31 952.165 1080.95 952.928L1107.02 955.673C1136.15 959.637 1150.71 975.344 1150.71 1002.79ZM1283.34 1050.83H1225.7C1207.4 1050.83 1194.51 1047.7 1187.04 1041.45C1179.72 1035.04 1176.06 1023.84 1176.06 1007.82V887.967H1283.34V916.33H1207.85V954.529H1260.69L1258.4 982.892H1207.85V1005.54C1207.85 1011.94 1209.3 1016.36 1212.2 1018.8C1215.1 1021.24 1220.36 1022.46 1227.98 1022.46H1283.34V1050.83ZM1437.84 1050.83H1401.01L1369.22 990.44H1346.35V1050.83H1314.55V922.964C1314.55 910.764 1317.37 901.92 1323.01 896.43C1328.66 890.788 1338.11 887.967 1351.38 887.967H1378.37C1394.53 887.967 1407.34 892.923 1416.8 902.835C1426.4 912.594 1431.21 925.022 1431.21 940.119C1431.21 951.098 1428.31 960.629 1422.51 968.71C1416.87 976.64 1409.86 982.13 1401.47 985.179L1437.84 1050.83ZM1376.31 963.907C1383.02 963.907 1388.51 961.62 1392.78 957.045C1397.2 952.318 1399.41 946.523 1399.41 939.661C1399.41 932.647 1397.28 927.005 1393.01 922.735C1388.89 918.465 1383.32 916.33 1376.31 916.33H1360.53C1351.07 916.33 1346.35 921.134 1346.35 930.741V963.907H1376.31ZM1577.44 887.967L1526.2 1041.68C1523.45 1048.69 1518.57 1052.2 1511.56 1052.2C1504.24 1052.2 1499.21 1048.69 1496.46 1041.68L1445.91 887.967H1478.85L1511.56 994.1L1544.27 887.967H1577.44ZM1628.91 1050.83H1597.12V887.967H1628.91V1050.83ZM1749.16 987.695H1778.66C1778.66 1008.43 1773.48 1024.37 1763.11 1035.5C1752.74 1046.63 1738.1 1052.2 1719.19 1052.2C1677.56 1052.2 1656.75 1027.72 1656.75 978.775V965.051C1656.75 926.471 1667.42 902.301 1688.77 892.542C1697.16 888.577 1707.3 886.595 1719.19 886.595C1736.58 886.595 1750.68 891.398 1761.51 901.005C1772.49 910.459 1777.98 924.183 1777.98 942.177H1748.24C1746.56 933.18 1743.59 926.395 1739.32 921.82C1735.05 917.245 1728.34 914.958 1719.19 914.958C1708.52 914.958 1700.59 918.313 1695.4 925.022C1691.74 929.749 1689.61 937.831 1689 949.268C1688.69 952.928 1688.54 957.884 1688.54 964.136V978.317C1688.54 995.854 1690.98 1007.82 1695.86 1014.23C1700.89 1020.63 1708.67 1023.84 1719.19 1023.84C1729.87 1023.84 1737.19 1020.94 1741.15 1015.14C1745.27 1009.2 1747.94 1000.05 1749.16 987.695ZM1913.03 1050.83H1855.39C1837.09 1050.83 1824.2 1047.7 1816.73 1041.45C1809.41 1035.04 1805.75 1023.84 1805.75 1007.82V887.967H1913.03V916.33H1837.54V954.529H1890.38L1888.09 982.892H1837.54V1005.54C1837.54 1011.94 1838.99 1016.36 1841.89 1018.8C1844.79 1021.24 1850.05 1022.46 1857.67 1022.46H1913.03V1050.83ZM2054.03 1002.79C2054.03 1018.19 2048.39 1030.32 2037.11 1039.16C2025.82 1047.85 2011.41 1052.2 1993.88 1052.2C1980 1052.2 1966.58 1048.39 1953.62 1040.76C1947.22 1036.8 1941.95 1031.23 1937.84 1024.06C1933.72 1016.74 1931.66 1008.43 1931.66 999.132L1960.48 997.76C1960.48 1005.99 1963.99 1012.4 1971 1016.97C1978.02 1021.55 1985.79 1023.84 1994.33 1023.84C2013.4 1023.84 2022.93 1017.13 2022.93 1003.71C2022.93 992.728 2016.45 986.247 2003.48 984.264L1976.95 981.52C1963.68 979.537 1953.16 974.81 1945.39 967.338C1937.61 959.866 1933.72 949.116 1933.72 935.086C1933.72 921.057 1939.29 909.468 1950.42 900.319C1961.55 891.169 1975.58 886.595 1992.5 886.595C2009.58 886.595 2023.31 890.941 2033.68 899.633C2044.05 908.172 2049.23 919.228 2049.23 932.799L2020.87 934.172C2018.28 920.905 2009.35 914.272 1994.11 914.272C1984.8 914.272 1977.48 916.254 1972.15 920.219C1966.96 924.183 1964.37 928.911 1964.37 934.4C1964.37 939.737 1966.28 944.007 1970.09 947.209C1973.9 950.259 1978.63 952.165 1984.27 952.928L2010.35 955.673C2039.47 959.637 2054.03 975.344 2054.03 1002.79Z" fill="#FB9800"/>
</g>
<defs>
<linearGradient id="paint0_linear_454_1182" x1="1044.83" y1="441.678" x2="1137.89" y2="425.635" gradientUnits="userSpaceOnUse">
<stop stop-color="#FDC800"/>
<stop offset="1" stop-color="#F49600"/>
</linearGradient>
<linearGradient id="paint1_linear_454_1182" x1="1048.07" y1="534.768" x2="1070.12" y2="533.111" gradientUnits="userSpaceOnUse">
<stop stop-color="#FDC800"/>
<stop offset="1" stop-color="#F49600"/>
</linearGradient>
<linearGradient id="paint2_linear_454_1182" x1="712.958" y1="522.367" x2="1359.77" y2="408.812" gradientUnits="userSpaceOnUse">
<stop stop-color="#FDC800"/>
<stop offset="1" stop-color="#F49600"/>
</linearGradient>
<linearGradient id="paint3_linear_454_1182" x1="662.562" y1="477.445" x2="1298.18" y2="319.936" gradientUnits="userSpaceOnUse">
<stop stop-color="#FDC800"/>
<stop offset="1" stop-color="#F49600"/>
</linearGradient>
<linearGradient id="paint4_linear_454_1182" x1="662.562" y1="477.445" x2="1298.18" y2="319.936" gradientUnits="userSpaceOnUse">
<stop stop-color="#FDC800"/>
<stop offset="1" stop-color="#F49600"/>
</linearGradient>
<clipPath id="clip0_454_1182">
<rect width="2061" height="1125.89" fill="white"/>
</clipPath>
</defs>
</svg>
