<svg width="123" height="32" viewBox="0 0 123 32" fill="none" xmlns="http://www.w3.org/2000/svg">
<path d="M19.3927 1.69616H23.9437V30.5511H19.3927V1.69616ZM26.4033 30.5511H30.9543V1.69616H26.4033V30.5511ZM47.7229 23.5847C46.6979 25.316 44.7299 26.3879 42.721 26.3879C39.8509 26.3879 37.965 24.4093 37.965 21.1527V10.3939H33.414V21.8946C33.414 27.4595 36.571 30.9633 41.614 30.9633C44.115 30.9633 46.534 29.7679 47.7229 27.8305V30.5511H52.3149V10.3939H47.7229V23.5847ZM64.0816 26.5527C60.7606 26.5527 58.2186 23.9145 58.2186 20.493C58.2186 17.0304 60.7606 14.3922 64.0816 14.3922C66.4595 14.3922 68.5095 15.7525 69.0016 17.6075H73.6756C73.0606 13.238 68.9196 9.98155 64.0816 9.98155C58.2186 9.98155 53.7086 14.5159 53.7086 20.493C53.7086 26.4701 58.2186 30.9632 64.0816 30.9632C68.9606 30.9632 73.1835 27.748 73.7165 23.1724H69.0425C68.5506 25.1922 66.4595 26.5527 64.0816 26.5527ZM75.1517 30.5511H79.7027V10.3939H75.1517V30.5511ZM77.4477 1.03662C75.8489 1.03662 74.5369 2.39693 74.5369 3.96334C74.5369 5.61219 75.8489 6.93128 77.4477 6.93128C79.0466 6.93128 80.3997 5.61219 80.3997 3.96334C80.3997 2.39693 79.0467 1.03662 77.4477 1.03662ZM97.1684 10.3939H101.76V30.5511H97.1684V27.7481C96.1844 29.603 93.4784 30.9633 90.7724 30.9633C85.3194 30.9633 81.1374 26.3465 81.1374 20.4519C81.1374 14.5985 85.3195 9.98166 90.7724 9.98166C93.4784 9.98166 96.1844 11.342 97.1684 13.1969V10.3939ZM97.1684 17.4839C96.2254 15.6702 94.0114 14.3511 91.7154 14.3511C88.2714 14.3511 85.6064 16.9481 85.6064 20.4519C85.6064 23.9557 88.2715 26.5939 91.7154 26.5939C94.0114 26.5939 96.1844 25.2748 97.1684 23.5022V17.4838V17.4839ZM114.8 9.98166C112.299 9.98166 109.962 11.1771 108.732 13.0733V10.3939H104.14V30.5511H108.732V17.3191C109.798 15.629 111.684 14.5572 113.693 14.5572C116.563 14.5572 118.449 16.5359 118.449 19.7923V30.5511H123V19.0504C123 13.4855 119.843 9.98166 114.8 9.98166ZM0 5.8183H16.933V1.69616H0V5.8183ZM4.1 14.0626H12.833V18.1847H4.1V22.3068H16.933V9.94044H4.1V14.0626ZM0 30.5511H16.933V26.429H0V30.5511Z" fill="#7100EB"/>
</svg>
