<svg width="899" height="910" viewBox="0 0 899 910" fill="none" xmlns="http://www.w3.org/2000/svg">
<g clip-path="url(#clip0_530_1456)">
<path d="M566.002 537.011C543.012 498.695 498.606 532.872 490.163 557.363C487.875 563.999 492.669 570.245 499.304 572.535C537.911 585.859 578.286 565.666 566.002 537.011Z" fill="url(#paint0_linear_530_1456)"/>
<path d="M489.154 672.907H476.902C472.446 646.175 485.441 641.719 492.496 642.833C497.842 647.288 490.268 662.882 489.154 672.907Z" fill="url(#paint1_linear_530_1456)"/>
<path d="M214.031 547.039C209.576 521.42 218.487 480.431 289.773 521.421L338.936 550.514C342.125 552.401 346.19 551.889 348.811 549.268L350.487 547.591C354.239 543.839 359.788 542.529 364.821 544.207C368.054 545.285 371.609 544.727 374.356 542.712L376.689 541.001C382.825 536.502 390.962 535.812 397.767 539.214L398.909 539.785C401.045 540.853 403.543 540.927 405.737 539.986L409.243 538.483C414.581 536.196 420.734 536.934 425.38 540.418L431.326 544.877C433.967 546.857 437.543 547.042 440.373 545.344L441.559 544.633C444.874 542.643 449.031 542.242 452.139 544.543C455.276 546.866 458.441 550.226 459.667 554.461C460.331 556.755 461.248 559.067 463.071 560.609L467.51 564.364C472.123 568.268 475.103 573.745 475.758 579.752C477.262 593.541 479.203 610.714 485.509 619.488C487.267 621.934 487.377 625.921 484.909 627.648L472.975 636.003C470.023 638.069 466.062 637.942 463.248 635.691L447.916 623.426C443.716 620.066 437.547 620.968 434.485 625.391C432.147 628.768 433.227 633.427 436.813 635.431L460.583 648.713C465.036 651.201 467.465 656.202 466.67 661.241L466.275 663.74C465.341 669.659 460.24 674.019 454.248 674.019H442.589C439.264 674.019 437.805 677.44 440.652 679.157C447.526 683.303 459.593 687.179 477.793 686.077C481.311 685.864 483.737 689.823 481.747 692.731L480.618 694.382C475.419 701.981 467.238 707.015 458.111 708.231L419.724 713.351C410.846 714.534 402.936 719.824 400.265 728.373C394.412 747.101 389.641 779.894 397.821 822.161C396.746 794.569 403.764 737.232 439.504 721.252C441.896 720.183 444.663 720.86 446.516 722.713C447.398 723.595 448.686 723.893 449.929 723.78C454.574 723.357 461.601 725.441 465.731 735.308C467.448 739.408 471.572 742.311 475.918 741.38C480.57 740.383 485.368 742.258 488.112 746.145L493.038 753.123C495.27 756.285 499.519 757.272 502.917 755.419C506.764 753.321 511.472 753.606 515.038 756.153L519.976 759.68C522.818 761.71 526.673 761.566 529.356 759.33L530.063 758.741C534.87 754.736 541.738 754.369 546.944 757.84C549.641 759.638 553.216 759.369 555.614 757.188L556.805 756.107C561.231 752.083 567.209 750.217 573.139 751.008L577.925 751.646C579.491 751.854 581.037 751.135 581.886 749.802L584.702 745.375C586.937 741.863 590.812 739.735 594.976 739.735H599.376C602.691 739.735 605.593 737.506 606.447 734.303C608.281 727.426 613.937 722.237 620.946 721L625.036 720.278C626.976 719.936 628.39 718.251 628.39 716.281V705.347C628.39 702.495 629.886 699.853 632.331 698.386L639.528 694.067C696.726 686.709 733.995 707.606 758.293 740.701C768.17 754.154 768.735 772.314 760.058 786.57C676.878 923.219 418.052 927.356 317.62 804.34L308.753 791.38C305.459 786.566 305.887 780.124 309.789 775.788C311.763 773.595 311.957 770.327 310.255 767.916L305.511 761.195C302.21 756.519 302.755 750.145 306.803 746.098C308.516 744.385 308.647 741.651 307.107 739.781L304.413 736.509C298.767 729.652 299.679 719.531 306.459 713.794L308.709 711.89L302.799 702.755C299.137 697.096 300.094 689.621 305.062 685.066L305.423 684.735C307.899 682.465 308.193 678.664 306.095 676.041C300.72 669.323 301.692 659.507 308.225 653.907C310.463 651.989 311.126 648.778 309.808 646.142L307.961 642.448C305.04 636.606 305.904 629.581 310.155 624.621L311.941 622.537C314.653 619.374 314.977 614.81 312.74 611.295C310.19 607.287 309.582 602.343 311.084 597.836L312.051 594.935C288.66 594.935 227.398 600.504 214.031 547.039ZM372.419 589.711C365.701 584.256 355.454 583.106 349.83 589.684C342.185 598.627 344.635 612.056 351.618 617.942C354.48 620.355 358.544 620.384 362.146 619.364C371.882 616.606 377.419 611.132 380.162 606.538C381.947 603.55 381.547 599.819 379.495 597.007C377.477 594.241 374.98 591.791 372.419 589.711ZM309.497 562.911C283.903 534.955 237.43 505.132 237.43 549.261C237.43 565.12 251.707 590.498 307.981 569.138C310.555 568.161 311.356 564.942 309.497 562.911Z" fill="url(#paint2_linear_530_1456)"/>
<path d="M816.696 282.229H821.641C823.509 282.229 825.011 280.692 824.967 278.824L820.002 67.6637C478.99 -91.1985 128.657 53.5018 40.7026 255.636C-95.3108 568.211 139.65 842.011 303.531 878.607C249.635 853.988 256.124 758.559 266.106 713.923C107.241 375.406 255.281 53.5016 509.819 53.5016C716.298 45.2623 779.253 169.047 813.514 279.887C813.946 281.284 815.233 282.229 816.696 282.229Z" fill="url(#paint3_linear_530_1456)"/>
<path d="M727.679 406.18C536.38 282.229 371.696 222.366 502.279 90.12C454.55 86.4885 395.294 110.261 353.366 144.171C331.002 162.258 317.535 189.222 315.323 217.9C304.923 352.698 420.096 432.124 463.657 460.711C495.493 481.603 651.471 577.211 712.708 629.085C809.657 711.211 719.362 875.279 560.5 856.149C375.872 843.71 339.84 699.263 344.805 625.169C344.936 623.221 343.402 621.599 341.45 621.599H334.62C333.381 621.599 332.244 622.287 331.678 623.389C293.925 696.932 288.65 787.484 304.326 832.86C379.515 918.03 656.15 947.64 800.04 843.673C941.435 704.773 940.604 517.632 727.679 406.18Z" fill="url(#paint4_linear_530_1456)"/>
</g>
<defs>
<linearGradient id="paint0_linear_530_1456" x1="467.002" y1="539.401" x2="580.65" y2="519.808" gradientUnits="userSpaceOnUse">
<stop stop-color="#FDC800"/>
<stop offset="1" stop-color="#F49600"/>
</linearGradient>
<linearGradient id="paint1_linear_530_1456" x1="470.958" y1="653.086" x2="497.886" y2="651.063" gradientUnits="userSpaceOnUse">
<stop stop-color="#FDC800"/>
<stop offset="1" stop-color="#F49600"/>
</linearGradient>
<linearGradient id="paint2_linear_530_1456" x1="61.702" y1="637.941" x2="851.619" y2="499.261" gradientUnits="userSpaceOnUse">
<stop stop-color="#FDC800"/>
<stop offset="1" stop-color="#F49600"/>
</linearGradient>
<linearGradient id="paint3_linear_530_1456" x1="0.156247" y1="583.081" x2="776.404" y2="390.722" gradientUnits="userSpaceOnUse">
<stop stop-color="#FDC800"/>
<stop offset="1" stop-color="#F49600"/>
</linearGradient>
<linearGradient id="paint4_linear_530_1456" x1="0.156247" y1="583.081" x2="776.404" y2="390.722" gradientUnits="userSpaceOnUse">
<stop stop-color="#FDC800"/>
<stop offset="1" stop-color="#F49600"/>
</linearGradient>
<clipPath id="clip0_530_1456">
<rect width="899" height="910" fill="white"/>
</clipPath>
</defs>
</svg>
