<svg width="863" height="643" viewBox="0 0 863 643" fill="none" xmlns="http://www.w3.org/2000/svg">
<path d="M296.742 276.504C296.742 242.981 303.995 213.165 318.5 187.056C333.005 160.625 353.151 140.156 378.938 125.651C405.047 110.824 434.541 103.41 467.419 103.41C507.711 103.41 542.201 114.047 570.889 135.321C599.576 156.596 616.794 193.557 626.465 230.303H540.037C533.268 216.121 519.636 198.75 507.065 191.336C494.816 183.922 482.394 180.345 466.599 180.345C441.135 180.345 420.945 189.095 405.151 206.823C389.356 224.552 383.669 246.849 383.669 276.504C383.669 306.159 389.856 329.476 405.65 347.205C421.445 364.933 441.135 372.683 466.599 372.683C482.394 372.683 496.815 368.607 509.063 361.193C521.634 353.779 532.769 337.408 539.538 323.225H626.465C616.794 359.971 599.576 396.413 570.889 417.687C542.201 438.639 507.711 449.115 467.419 449.115C434.541 449.115 405.047 441.863 378.938 427.357C353.151 412.53 333.005 392.062 318.5 365.952C303.995 339.843 296.742 310.027 296.742 276.504Z" fill="url(#paint0_linear_563_1564)"/>
<path d="M400.751 25.9002L375.95 38.1038L347.702 24.4793L146.871 122.896V98.9168L347.702 0L400.751 25.9002Z" fill="#F6A200"/>
<path d="M716.891 98.9168V122.896L516.061 23.9796L487.703 38.0735L463.448 26.148L516.061 0L716.891 98.9168Z" fill="#F6A200"/>
<path d="M431.834 11.7188L147.055 151.847V175.811L431.834 36.0679L717.143 175.811V151.991L431.834 11.7188Z" fill="white"/>
<path d="M342.451 455.22V102.98L327.287 104.895C289.752 109.633 261.229 140.952 260.012 178.765V455.22H342.451Z" fill="url(#paint1_linear_563_1564)"/>
<path d="M95.9613 489.114V554.686H79.9888V489.114H95.9613ZM164.328 554.686H148.355L121.641 514.241V554.686H105.668V489.114H121.641L148.355 529.746V489.114H164.328V554.686ZM248.296 489.114V554.686H232.323V515.361L217.658 554.686H204.768L190.01 515.268V554.686H174.037V489.114H192.906L211.307 534.51L229.521 489.114H248.296ZM288.925 555.339C282.76 555.339 277.093 553.907 271.925 551.043C266.818 548.178 262.74 544.193 259.688 539.087C256.699 533.918 255.205 528.127 255.205 521.713C255.205 515.299 256.699 509.539 259.688 504.433C262.74 499.327 266.818 495.341 271.925 492.477C277.093 489.612 282.76 488.18 288.925 488.18C295.089 488.18 300.725 489.612 305.831 492.477C311 495.341 315.047 499.327 317.974 504.433C320.963 509.539 322.458 515.299 322.458 521.713C322.458 528.127 320.963 533.918 317.974 539.087C314.985 544.193 310.937 548.178 305.831 551.043C300.725 553.907 295.089 555.339 288.925 555.339ZM288.925 540.768C294.155 540.768 298.328 539.024 301.441 535.537C304.617 532.05 306.205 527.442 306.205 521.713C306.205 515.922 304.617 511.314 301.441 507.889C298.328 504.402 294.155 502.658 288.925 502.658C283.632 502.658 279.397 504.371 276.221 507.795C273.108 511.22 271.551 515.86 271.551 521.713C271.551 527.504 273.108 532.143 276.221 535.631C279.397 539.056 283.632 540.768 288.925 540.768Z" fill="white"/>
<path d="M344.693 521.806C344.693 515.33 346.094 509.57 348.896 504.526C351.698 499.42 355.59 495.466 360.572 492.664C365.616 489.799 371.314 488.367 377.665 488.367C385.449 488.367 392.112 490.422 397.654 494.532C403.196 498.642 406.902 504.246 408.77 511.345H391.209C389.902 508.605 388.033 506.519 385.605 505.087C383.239 503.654 380.53 502.938 377.478 502.938C372.559 502.938 368.574 504.651 365.522 508.076C362.471 511.501 360.945 516.078 360.945 521.806C360.945 527.535 362.471 532.112 365.522 535.537C368.574 538.962 372.559 540.675 377.478 540.675C380.53 540.675 383.239 539.958 385.605 538.526C388.033 537.094 389.902 535.008 391.209 532.268H408.77C406.902 539.367 403.196 544.971 397.654 549.081C392.112 553.129 385.449 555.153 377.665 555.153C371.314 555.153 365.616 553.751 360.572 550.949C355.59 548.085 351.698 544.131 348.896 539.087C346.094 534.043 344.693 528.283 344.693 521.806ZM447.694 555.339C441.529 555.339 435.862 553.907 430.694 551.043C425.588 548.178 421.509 544.193 418.458 539.087C415.469 533.918 413.974 528.127 413.974 521.713C413.974 515.299 415.469 509.539 418.458 504.433C421.509 499.327 425.588 495.341 430.694 492.477C435.862 489.612 441.529 488.18 447.694 488.18C453.859 488.18 459.494 489.612 464.6 492.477C469.769 495.341 473.817 499.327 476.743 504.433C479.732 509.539 481.227 515.299 481.227 521.713C481.227 528.127 479.732 533.918 476.743 539.087C473.754 544.193 469.707 548.178 464.6 551.043C459.494 553.907 453.859 555.339 447.694 555.339ZM447.694 540.768C452.925 540.768 457.097 539.024 460.21 535.537C463.386 532.05 464.974 527.442 464.974 521.713C464.974 515.922 463.386 511.314 460.21 507.889C457.097 504.402 452.925 502.658 447.694 502.658C442.401 502.658 438.166 504.371 434.991 507.795C431.877 511.22 430.32 515.86 430.32 521.713C430.32 527.504 431.877 532.143 434.991 535.631C438.166 539.056 442.401 540.768 447.694 540.768ZM521.684 554.686L508.047 529.933H504.217V554.686H488.245V489.114H515.052C520.221 489.114 524.611 490.017 528.223 491.823C531.897 493.629 534.637 496.12 536.443 499.295C538.248 502.409 539.151 505.896 539.151 509.757C539.151 514.116 537.906 518.008 535.415 521.433C532.986 524.858 529.375 527.286 524.58 528.719L539.712 554.686H521.684ZM504.217 518.631H514.118C517.045 518.631 519.225 517.914 520.657 516.482C522.151 515.05 522.899 513.026 522.899 510.411C522.899 507.92 522.151 505.958 520.657 504.526C519.225 503.094 517.045 502.378 514.118 502.378H504.217V518.631ZM571.876 489.114C578.788 489.114 584.828 490.484 589.997 493.224C595.165 495.964 599.15 499.825 601.953 504.806C604.817 509.726 606.249 515.424 606.249 521.9C606.249 528.314 604.817 534.012 601.953 538.993C599.15 543.975 595.134 547.836 589.903 550.576C584.735 553.316 578.726 554.686 571.876 554.686H547.31V489.114H571.876ZM570.848 540.861C576.889 540.861 581.59 539.211 584.953 535.911C588.315 532.61 589.997 527.94 589.997 521.9C589.997 515.86 588.315 511.158 584.953 507.795C581.59 504.433 576.889 502.751 570.848 502.751H563.282V540.861H570.848ZM629.28 501.911V515.175H650.67V527.504H629.28V541.889H653.472V554.686H613.307V489.114H653.472V501.911H629.28ZM695.413 554.686L681.776 529.933H677.946V554.686H661.974V489.114H688.781C693.95 489.114 698.34 490.017 701.952 491.823C705.626 493.629 708.366 496.12 710.171 499.295C711.977 502.409 712.88 505.896 712.88 509.757C712.88 514.116 711.635 518.008 709.144 521.433C706.715 524.858 703.104 527.286 698.309 528.719L713.441 554.686H695.413ZM677.946 518.631H687.847C690.774 518.631 692.953 517.914 694.386 516.482C695.88 515.05 696.627 513.026 696.627 510.411C696.627 507.92 695.88 505.958 694.386 504.526C692.953 503.094 690.774 502.378 687.847 502.378H677.946V518.631ZM752.05 555.339C745.885 555.339 740.218 553.907 735.05 551.043C729.943 548.178 725.865 544.193 722.813 539.087C719.824 533.918 718.33 528.127 718.33 521.713C718.33 515.299 719.824 509.539 722.813 504.433C725.865 499.327 729.943 495.341 735.05 492.477C740.218 489.612 745.885 488.18 752.05 488.18C758.215 488.18 763.85 489.612 768.956 492.477C774.125 495.341 778.172 499.327 781.099 504.433C784.088 509.539 785.583 515.299 785.583 521.713C785.583 528.127 784.088 533.918 781.099 539.087C778.11 544.193 774.062 548.178 768.956 551.043C763.85 553.907 758.215 555.339 752.05 555.339ZM752.05 540.768C757.28 540.768 761.453 539.024 764.566 535.537C767.742 532.05 769.33 527.442 769.33 521.713C769.33 515.922 767.742 511.314 764.566 507.889C761.453 504.402 757.28 502.658 752.05 502.658C746.757 502.658 742.522 504.371 739.346 507.795C736.233 511.22 734.676 515.86 734.676 521.713C734.676 527.504 736.233 532.143 739.346 535.631C742.522 539.056 746.757 540.768 752.05 540.768Z" fill="#F39400"/>
<path d="M24.6203 592.709V597.823H16.2023V624.299H9.8662V597.823H1.44825V592.709H24.6203ZM47.7085 592.709V612.26C47.7085 614.402 48.2666 616.047 49.383 617.193C50.4994 618.31 52.0683 618.868 54.0898 618.868C56.1415 618.868 57.7255 618.31 58.8419 617.193C59.9582 616.047 60.5164 614.402 60.5164 612.26V592.709H66.8978V612.215C66.8978 614.9 66.3094 617.178 65.1327 619.049C63.9862 620.889 62.4323 622.277 60.4712 623.213C58.5402 624.148 56.3829 624.616 53.9993 624.616C51.6459 624.616 49.5037 624.148 47.5727 623.213C45.6718 622.277 44.1633 620.889 43.0469 619.049C41.9305 617.178 41.3724 614.9 41.3724 612.215V592.709H47.7085ZM134.447 592.709V624.299H128.111V610.857H114.579V624.299H108.243V592.709H114.579V605.698H128.111V592.709H134.447ZM167.567 624.616C164.61 624.616 161.894 623.922 159.42 622.534C156.946 621.146 154.985 619.23 153.537 616.786C152.089 614.312 151.364 611.521 151.364 608.413C151.364 605.336 152.089 602.575 153.537 600.131C154.985 597.657 156.946 595.726 159.42 594.338C161.894 592.95 164.61 592.256 167.567 592.256C170.554 592.256 173.269 592.95 175.713 594.338C178.187 595.726 180.133 597.657 181.551 600.131C183 602.575 183.724 605.336 183.724 608.413C183.724 611.521 183 614.312 181.551 616.786C180.133 619.23 178.187 621.146 175.713 622.534C173.239 623.922 170.524 624.616 167.567 624.616ZM167.567 618.958C169.468 618.958 171.142 618.536 172.59 617.691C174.039 616.816 175.17 615.579 175.985 613.98C176.799 612.381 177.207 610.525 177.207 608.413C177.207 606.301 176.799 604.461 175.985 602.892C175.17 601.293 174.039 600.071 172.59 599.226C171.142 598.381 169.468 597.959 167.567 597.959C165.666 597.959 163.976 598.381 162.498 599.226C161.05 600.071 159.918 601.293 159.103 602.892C158.289 604.461 157.882 606.301 157.882 608.413C157.882 610.525 158.289 612.381 159.103 613.98C159.918 615.579 161.05 616.816 162.498 617.691C163.976 618.536 165.666 618.958 167.567 618.958ZM222.653 602.213C221.928 600.885 220.933 599.875 219.666 599.181C218.398 598.487 216.92 598.14 215.23 598.14C213.36 598.14 211.7 598.562 210.252 599.407C208.804 600.252 207.672 601.459 206.858 603.028C206.043 604.597 205.636 606.407 205.636 608.459C205.636 610.571 206.043 612.411 206.858 613.98C207.702 615.549 208.864 616.756 210.342 617.601C211.821 618.445 213.541 618.868 215.502 618.868C217.916 618.868 219.892 618.234 221.431 616.967C222.969 615.67 223.98 613.874 224.463 611.581H213.601V606.739H230.708V612.26C230.286 614.463 229.381 616.499 227.993 618.37C226.605 620.241 224.81 621.749 222.607 622.896C220.435 624.012 217.991 624.57 215.276 624.57C212.228 624.57 209.467 623.892 206.993 622.534C204.549 621.146 202.618 619.23 201.2 616.786C199.812 614.342 199.118 611.566 199.118 608.459C199.118 605.351 199.812 602.575 201.2 600.131C202.618 597.657 204.549 595.741 206.993 594.383C209.467 592.996 212.213 592.302 215.23 592.302C218.791 592.302 221.883 593.177 224.508 594.927C227.133 596.646 228.943 599.075 229.939 602.213H222.653ZM266.986 618.28H254.404L252.323 624.299H245.67L257.029 592.664H264.406L275.766 624.299H269.068L266.986 618.28ZM265.266 613.211L260.695 599.995L256.124 613.211H265.266ZM308.525 624.299L301.555 611.989H298.568V624.299H292.232V592.709H304.089C306.533 592.709 308.615 593.146 310.335 594.021C312.055 594.866 313.337 596.028 314.182 597.506C315.057 598.954 315.494 600.584 315.494 602.394C315.494 604.476 314.891 606.362 313.684 608.051C312.477 609.711 310.682 610.857 308.298 611.491L315.856 624.299H308.525ZM298.568 607.237H303.863C305.583 607.237 306.865 606.829 307.71 606.015C308.555 605.17 308.977 604.008 308.977 602.53C308.977 601.082 308.555 599.965 307.71 599.181C306.865 598.366 305.583 597.959 303.863 597.959H298.568V607.237ZM354.91 608.459C354.91 605.351 355.604 602.575 356.992 600.131C358.41 597.657 360.325 595.741 362.739 594.383C365.183 592.996 367.914 592.302 370.931 592.302C374.461 592.302 377.554 593.207 380.209 595.017C382.864 596.827 384.719 599.332 385.775 602.53H378.489C377.765 601.021 376.739 599.89 375.411 599.135C374.114 598.381 372.605 598.004 370.886 598.004C369.045 598.004 367.401 598.442 365.953 599.317C364.534 600.161 363.418 601.368 362.603 602.937C361.819 604.506 361.427 606.347 361.427 608.459C361.427 610.54 361.819 612.381 362.603 613.98C363.418 615.549 364.534 616.771 365.953 617.646C367.401 618.491 369.045 618.913 370.886 618.913C372.605 618.913 374.114 618.536 375.411 617.782C376.739 616.997 377.765 615.851 378.489 614.342H385.775C384.719 617.57 382.864 620.09 380.209 621.9C377.584 623.68 374.491 624.57 370.931 624.57C367.914 624.57 365.183 623.892 362.739 622.534C360.325 621.146 358.41 619.23 356.992 616.786C355.604 614.342 354.91 611.566 354.91 608.459ZM418.07 624.616C415.114 624.616 412.398 623.922 409.924 622.534C407.45 621.146 405.489 619.23 404.041 616.786C402.592 614.312 401.868 611.521 401.868 608.413C401.868 605.336 402.592 602.575 404.041 600.131C405.489 597.657 407.45 595.726 409.924 594.338C412.398 592.95 415.114 592.256 418.07 592.256C421.057 592.256 423.773 592.95 426.217 594.338C428.691 595.726 430.637 597.657 432.055 600.131C433.503 602.575 434.228 605.336 434.228 608.413C434.228 611.521 433.503 614.312 432.055 616.786C430.637 619.23 428.691 621.146 426.217 622.534C423.743 623.922 421.027 624.616 418.07 624.616ZM418.07 618.958C419.971 618.958 421.646 618.536 423.094 617.691C424.542 616.816 425.674 615.579 426.488 613.98C427.303 612.381 427.71 610.525 427.71 608.413C427.71 606.301 427.303 604.461 426.488 602.892C425.674 601.293 424.542 600.071 423.094 599.226C421.646 598.381 419.971 597.959 418.07 597.959C416.17 597.959 414.48 598.381 413.002 599.226C411.553 600.071 410.422 601.293 409.607 602.892C408.793 604.461 408.385 606.301 408.385 608.413C408.385 610.525 408.793 612.381 409.607 613.98C410.422 615.579 411.553 616.816 413.002 617.691C414.48 618.536 416.17 618.958 418.07 618.958ZM485.602 592.709V624.299H479.266V603.752L470.803 624.299H466.006L457.497 603.752V624.299H451.161V592.709H458.357L468.404 616.198L478.451 592.709H485.602ZM510.422 592.709V624.299H504.086V592.709H510.422ZM535.238 597.823V605.743H545.874V610.767H535.238V619.139H547.231V624.299H528.902V592.664H547.231V597.823H535.238ZM592.228 624.299H585.892L571.545 602.62V624.299H565.209V592.664H571.545L585.892 614.387V592.664H592.228V624.299ZM617.181 618.958H631.392V624.299H609.849V619.411L623.969 598.049H609.849V592.709H631.392V597.597L617.181 618.958ZM668.375 618.28H655.793L653.712 624.299H647.059L658.418 592.664H665.795L677.155 624.299H670.457L668.375 618.28ZM666.655 613.211L662.084 599.995L657.513 613.211H666.655ZM735.995 618.28H723.413L721.331 624.299H714.678L726.038 592.664H733.415L744.775 624.299H738.077L735.995 618.28ZM734.275 613.211L729.704 599.995L725.133 613.211H734.275ZM784.775 629.866L779.977 624.118C778.65 624.45 777.292 624.616 775.904 624.616C772.947 624.616 770.232 623.922 767.758 622.534C765.284 621.146 763.323 619.23 761.874 616.786C760.426 614.312 759.702 611.521 759.702 608.413C759.702 605.336 760.426 602.575 761.874 600.131C763.323 597.657 765.284 595.726 767.758 594.338C770.232 592.95 772.947 592.256 775.904 592.256C778.891 592.256 781.607 592.95 784.051 594.338C786.525 595.726 788.471 597.657 789.889 600.131C791.337 602.575 792.061 605.336 792.061 608.413C792.061 611.219 791.458 613.784 790.251 616.107C789.074 618.4 787.46 620.271 785.408 621.719L792.65 629.866H784.775ZM766.219 608.413C766.219 610.525 766.626 612.381 767.441 613.98C768.256 615.579 769.387 616.816 770.835 617.691C772.314 618.536 774.003 618.958 775.904 618.958C777.805 618.958 779.48 618.536 780.928 617.691C782.376 616.816 783.507 615.579 784.322 613.98C785.137 612.381 785.544 610.525 785.544 608.413C785.544 606.301 785.137 604.461 784.322 602.892C783.507 601.293 782.376 600.071 780.928 599.226C779.48 598.381 777.805 597.959 775.904 597.959C774.003 597.959 772.314 598.381 770.835 599.226C769.387 600.071 768.256 601.293 767.441 602.892C766.626 604.461 766.219 606.301 766.219 608.413ZM815.329 592.709V612.26C815.329 614.402 815.887 616.047 817.003 617.193C818.12 618.31 819.689 618.868 821.71 618.868C823.762 618.868 825.346 618.31 826.462 617.193C827.578 616.047 828.137 614.402 828.137 612.26V592.709H834.518V612.215C834.518 614.9 833.93 617.178 832.753 619.049C831.606 620.889 830.053 622.277 828.091 623.213C826.16 624.148 824.003 624.616 821.62 624.616C819.266 624.616 817.124 624.148 815.193 623.213C813.292 622.277 811.783 620.889 810.667 619.049C809.551 617.178 808.993 614.9 808.993 612.215V592.709H815.329ZM859.196 592.709V624.299H852.859V592.709H859.196ZM860.961 586.146L850.551 590.899V586.373L860.961 580.987V586.146Z" fill="#F39400"/>
<defs>
<linearGradient id="paint0_linear_563_1564" x1="626.465" y1="276.265" x2="296.742" y2="276.265" gradientUnits="userSpaceOnUse">
<stop stop-color="#F49600"/>
<stop offset="1" stop-color="#FEC900"/>
</linearGradient>
<linearGradient id="paint1_linear_563_1564" x1="342.451" y1="294.577" x2="256.312" y2="295.101" gradientUnits="userSpaceOnUse">
<stop stop-color="white"/>
<stop offset="1" stop-color="white" stop-opacity="0.12"/>
</linearGradient>
</defs>
</svg>
